<svg width="596" height="596" viewBox="0 0 596 596" fill="none" xmlns="http://www.w3.org/2000/svg">
<rect opacity="0.5" width="596" height="596" rx="16" fill="#D9D9D9"/>
<path d="M335.917 249.25H260.083C254.1 249.25 249.25 254.1 249.25 260.083V335.917C249.25 341.9 254.1 346.75 260.083 346.75H335.917C341.9 346.75 346.75 341.9 346.75 335.917V260.083C346.75 254.1 341.9 249.25 335.917 249.25Z" stroke="#9C9C9C" stroke-width="3" stroke-linecap="round" stroke-linejoin="round"/>
<path d="M279.043 287.166C283.53 287.166 287.168 283.528 287.168 279.041C287.168 274.554 283.53 270.916 279.043 270.916C274.556 270.916 270.918 274.554 270.918 279.041C270.918 283.528 274.556 287.166 279.043 287.166Z" stroke="#9C9C9C" stroke-width="3" stroke-linecap="round" stroke-linejoin="round"/>
<path d="M346.749 314.249L319.665 287.166L260.082 346.749" stroke="#9C9C9C" stroke-width="3" stroke-linecap="round" stroke-linejoin="round"/>
</svg>
